<svg width="28" height="28" viewBox="0 0 28 28" fill="none" xmlns="http://www.w3.org/2000/svg">
<mask id="mask0_3_6" style="mask-type:luminance" maskUnits="userSpaceOnUse" x="0" y="0" width="28" height="28">
<path d="M27.4133 0.388062H0.592712V27.2086H27.4133V0.388062Z" fill="white"/>
</mask>
<g mask="url(#mask0_3_6)">
<path d="M14.003 27.2086C21.4093 27.2086 27.4133 21.2047 27.4133 13.7984C27.4133 6.39204 21.4093 0.388062 14.003 0.388062C6.59669 0.388062 0.592712 6.39204 0.592712 13.7984C0.592712 21.2047 6.59669 27.2086 14.003 27.2086Z" fill="url(#paint0_linear_3_6)"/>
<path d="M9.67035 14.7786L11.2614 19.1823C11.2614 19.1823 11.4603 19.5944 11.6733 19.5944C11.8863 19.5944 15.0543 16.2986 15.0543 16.2986L18.5774 9.49399L9.7271 13.6419L9.67035 14.7786Z" fill="#C8DAEA"/>
<path d="M11.7797 15.908L11.4743 19.154C11.4743 19.154 11.3464 20.1486 12.3408 19.154C13.3352 18.1594 14.287 17.3924 14.287 17.3924" fill="#A9C6D8"/>
<path d="M9.69904 14.9358L6.42626 13.8694C6.42626 13.8694 6.03511 13.7108 6.16107 13.3509C6.18698 13.2767 6.23928 13.2136 6.39575 13.105C7.12091 12.5996 19.8179 8.03596 19.8179 8.03596C19.8179 8.03596 20.1764 7.91517 20.3878 7.99549C20.4401 8.01167 20.4872 8.04151 20.5242 8.08184C20.5612 8.12221 20.5869 8.17164 20.5985 8.22514C20.6213 8.31968 20.6309 8.41691 20.6268 8.51403C20.6258 8.59809 20.6157 8.67596 20.608 8.79809C20.5306 10.0458 18.2165 19.3579 18.2165 19.3579C18.2165 19.3579 18.078 19.9028 17.5819 19.9215C17.46 19.9254 17.3386 19.9048 17.2248 19.8608C17.111 19.8168 17.0073 19.7503 16.9198 19.6654C15.9463 18.828 12.5817 16.5668 11.8382 16.0695C11.8214 16.0581 11.8073 16.0432 11.7968 16.0259C11.7863 16.0085 11.7795 15.9891 11.7772 15.9689C11.7668 15.9165 11.8238 15.8516 11.8238 15.8516C11.8238 15.8516 17.6825 10.6439 17.8384 10.0972C17.8505 10.0549 17.8049 10.034 17.7436 10.0525C17.3545 10.1957 10.6089 14.4556 9.86442 14.9257C9.81082 14.9419 9.75421 14.9454 9.69904 14.9358Z" fill="white"/>
</g>
<defs>
<linearGradient id="paint0_linear_3_6" x1="14.003" y1="27.2086" x2="14.003" y2="0.388062" gradientUnits="userSpaceOnUse">
<stop stop-color="#1D93D2"/>
<stop offset="1" stop-color="#38B0E3"/>
</linearGradient>
</defs>
</svg>
