<svg width="28" height="28" viewBox="0 0 28 28" fill="none" xmlns="http://www.w3.org/2000/svg">
<path d="M13.8943 27.2086C21.3006 27.2086 27.3046 21.2046 27.3046 13.7984C27.3046 6.39205 21.3006 0.388062 13.8943 0.388062C6.488 0.388062 0.484009 6.39205 0.484009 13.7984C0.484009 21.2046 6.488 27.2086 13.8943 27.2086Z" fill="#1E1E1D"/>
<mask id="mask0_3_16" style="mask-type:luminance" maskUnits="userSpaceOnUse" x="7" y="7" width="14" height="14">
<path d="M20.1205 7.09323H7.18915V20.0354H20.1205V7.09323Z" fill="white"/>
</mask>
<g mask="url(#mask0_3_16)">
<path d="M14.8863 12.574L19.7011 7.09323H18.5605L14.3781 11.8511L11.0401 7.09323H7.18915L12.238 14.2887L7.18915 20.0354H8.32969L12.7436 15.0098L16.2695 20.0354H20.1205M8.74134 7.93549H10.4935L18.5597 19.2345H16.8071" fill="white"/>
</g>
</svg>
